<svg width="167" height="60" viewBox="0 0 167 60" fill="none" xmlns="http://www.w3.org/2000/svg">
<path d="M27 3.68852C29.4864 3.68852 31.871 4.66005 33.6291 6.38938C35.3873 8.11872 36.375 10.4642 36.375 12.9098V14.7541H17.625V12.9098C17.625 10.4642 18.6127 8.11872 20.3709 6.38938C22.129 4.66005 24.5136 3.68852 27 3.68852ZM40.125 14.7541V12.9098C40.125 9.48593 38.7422 6.20227 36.2808 3.7812C33.8194 1.36014 30.481 0 27 0C23.519 0 20.1806 1.36014 17.7192 3.7812C15.2578 6.20227 13.875 9.48593 13.875 12.9098V14.7541H0.75V51.6393C0.75 53.5959 1.54018 55.4722 2.9467 56.8557C4.35322 58.2392 6.26088 59.0164 8.25 59.0164H45.75C47.7391 59.0164 49.6468 58.2392 51.0533 56.8557C52.4598 55.4722 53.25 53.5959 53.25 51.6393V14.7541H40.125Z" fill="#FFA800"/>
<path d="M71 15.456V18.62H62.852V23.632H69.096V26.74H62.852V35H58.932V15.456H71Z" fill="white"/>
<path d="M72.7717 27.188C72.7717 25.62 73.0797 24.2293 73.6957 23.016C74.3303 21.8027 75.1797 20.8693 76.2437 20.216C77.3263 19.5627 78.5303 19.236 79.8557 19.236C81.013 19.236 82.021 19.4693 82.8797 19.936C83.757 20.4027 84.457 20.9907 84.9797 21.7V19.488H88.9277V35H84.9797V32.732C84.4757 33.46 83.7757 34.0667 82.8797 34.552C82.0023 35.0187 80.985 35.252 79.8277 35.252C78.521 35.252 77.3263 34.916 76.2437 34.244C75.1797 33.572 74.3303 32.6293 73.6957 31.416C73.0797 30.184 72.7717 28.7747 72.7717 27.188ZM84.9797 27.244C84.9797 26.292 84.793 25.48 84.4197 24.808C84.0463 24.1173 83.5423 23.5947 82.9077 23.24C82.273 22.8667 81.5917 22.68 80.8637 22.68C80.1357 22.68 79.4637 22.8573 78.8477 23.212C78.2317 23.5667 77.7277 24.0893 77.3357 24.78C76.9623 25.452 76.7757 26.2547 76.7757 27.188C76.7757 28.1213 76.9623 28.9427 77.3357 29.652C77.7277 30.3427 78.2317 30.8747 78.8477 31.248C79.4823 31.6213 80.1543 31.808 80.8637 31.808C81.5917 31.808 82.273 31.6307 82.9077 31.276C83.5423 30.9027 84.0463 30.38 84.4197 29.708C84.793 29.0173 84.9797 28.196 84.9797 27.244Z" fill="white"/>
<path d="M98.6922 35.252C97.4229 35.252 96.2842 35.028 95.2762 34.58C94.2682 34.1133 93.4656 33.488 92.8682 32.704C92.2896 31.92 91.9722 31.052 91.9162 30.1H95.8642C95.9389 30.6973 96.2282 31.192 96.7322 31.584C97.2549 31.976 97.8989 32.172 98.6642 32.172C99.4109 32.172 99.9896 32.0227 100.4 31.724C100.83 31.4253 101.044 31.0427 101.044 30.576C101.044 30.072 100.783 29.6987 100.26 29.456C99.7562 29.1947 98.9442 28.9147 97.8242 28.616C96.6669 28.336 95.7149 28.0467 94.9682 27.748C94.2402 27.4493 93.6055 26.992 93.0642 26.376C92.5415 25.76 92.2802 24.9293 92.2802 23.884C92.2802 23.0253 92.5229 22.2413 93.0082 21.532C93.5122 20.8227 94.2216 20.2627 95.1362 19.852C96.0696 19.4413 97.1615 19.236 98.4122 19.236C100.26 19.236 101.735 19.7027 102.836 20.636C103.938 21.5507 104.544 22.792 104.656 24.36H100.904C100.848 23.744 100.587 23.2587 100.12 22.904C99.6722 22.5307 99.0656 22.344 98.3002 22.344C97.5909 22.344 97.0402 22.4747 96.6482 22.736C96.2749 22.9973 96.0882 23.3613 96.0882 23.828C96.0882 24.3507 96.3495 24.752 96.8722 25.032C97.3949 25.2933 98.2069 25.564 99.3082 25.844C100.428 26.124 101.352 26.4133 102.08 26.712C102.808 27.0107 103.434 27.4773 103.956 28.112C104.498 28.728 104.778 29.5493 104.796 30.576C104.796 31.472 104.544 32.2747 104.04 32.984C103.555 33.6933 102.846 34.2533 101.912 34.664C100.998 35.056 99.9242 35.252 98.6922 35.252Z" fill="white"/>
<path d="M116.75 19.264C117.926 19.264 118.971 19.5253 119.886 20.048C120.801 20.552 121.51 21.308 122.014 22.316C122.537 23.3053 122.798 24.5 122.798 25.9V35H118.878V26.432C118.878 25.2 118.57 24.2573 117.954 23.604C117.338 22.932 116.498 22.596 115.434 22.596C114.351 22.596 113.493 22.932 112.858 23.604C112.242 24.2573 111.934 25.2 111.934 26.432V35H108.014V14.28H111.934V21.42C112.438 20.748 113.11 20.2253 113.95 19.852C114.79 19.46 115.723 19.264 116.75 19.264Z" fill="white"/>
<path d="M128.514 17.64C127.823 17.64 127.244 17.4253 126.778 16.996C126.33 16.548 126.106 15.9973 126.106 15.344C126.106 14.6907 126.33 14.1493 126.778 13.72C127.244 13.272 127.823 13.048 128.514 13.048C129.204 13.048 129.774 13.272 130.222 13.72C130.688 14.1493 130.922 14.6907 130.922 15.344C130.922 15.9973 130.688 16.548 130.222 16.996C129.774 17.4253 129.204 17.64 128.514 17.64ZM130.446 19.488V35H126.526V19.488H130.446Z" fill="white"/>
<path d="M141.207 35.252C139.713 35.252 138.369 34.9253 137.175 34.272C135.98 33.6 135.037 32.6573 134.347 31.444C133.675 30.2307 133.339 28.8307 133.339 27.244C133.339 25.6573 133.684 24.2573 134.375 23.044C135.084 21.8307 136.045 20.8973 137.259 20.244C138.472 19.572 139.825 19.236 141.319 19.236C142.812 19.236 144.165 19.572 145.379 20.244C146.592 20.8973 147.544 21.8307 148.235 23.044C148.944 24.2573 149.299 25.6573 149.299 27.244C149.299 28.8307 148.935 30.2307 148.207 31.444C147.497 32.6573 146.527 33.6 145.295 34.272C144.081 34.9253 142.719 35.252 141.207 35.252ZM141.207 31.836C141.916 31.836 142.579 31.668 143.195 31.332C143.829 30.9773 144.333 30.4547 144.707 29.764C145.08 29.0733 145.267 28.2333 145.267 27.244C145.267 25.7693 144.875 24.64 144.091 23.856C143.325 23.0533 142.383 22.652 141.263 22.652C140.143 22.652 139.2 23.0533 138.435 23.856C137.688 24.64 137.315 25.7693 137.315 27.244C137.315 28.7187 137.679 29.8573 138.407 30.66C139.153 31.444 140.087 31.836 141.207 31.836Z" fill="white"/>
<path d="M160.77 19.264C162.618 19.264 164.112 19.852 165.25 21.028C166.389 22.1853 166.958 23.8093 166.958 25.9V35H163.038V26.432C163.038 25.2 162.73 24.2573 162.114 23.604C161.498 22.932 160.658 22.596 159.594 22.596C158.512 22.596 157.653 22.932 157.018 23.604C156.402 24.2573 156.094 25.2 156.094 26.432V35H152.174V19.488H156.094V21.42C156.617 20.748 157.28 20.2253 158.082 19.852C158.904 19.46 159.8 19.264 160.77 19.264Z" fill="white"/>
<path d="M65.68 58.196C64.3173 58.196 63.0853 57.9627 61.984 57.496C60.9013 57.0293 60.0427 56.3573 59.408 55.48C58.7733 54.6027 58.4467 53.5667 58.428 52.372H62.628C62.684 53.1747 62.964 53.8093 63.468 54.276C63.9907 54.7427 64.7 54.976 65.596 54.976C66.5107 54.976 67.2293 54.7613 67.752 54.332C68.2747 53.884 68.536 53.3053 68.536 52.596C68.536 52.0173 68.3587 51.5413 68.004 51.168C67.6493 50.7947 67.2013 50.5053 66.66 50.3C66.1373 50.076 65.4093 49.8333 64.476 49.572C63.2067 49.1987 62.1707 48.8347 61.368 48.48C60.584 48.1067 59.9027 47.556 59.324 46.828C58.764 46.0813 58.484 45.092 58.484 43.86C58.484 42.7027 58.7733 41.6947 59.352 40.836C59.9307 39.9773 60.7427 39.324 61.788 38.876C62.8333 38.4093 64.028 38.176 65.372 38.176C67.388 38.176 69.0213 38.6707 70.272 39.66C71.5413 40.6307 72.2413 41.9933 72.372 43.748H68.06C68.0227 43.076 67.7333 42.5253 67.192 42.096C66.6693 41.648 65.9693 41.424 65.092 41.424C64.3267 41.424 63.7107 41.62 63.244 42.012C62.796 42.404 62.572 42.9733 62.572 43.72C62.572 44.2427 62.74 44.6813 63.076 45.036C63.4307 45.372 63.86 45.652 64.364 45.876C64.8867 46.0813 65.6147 46.324 66.548 46.604C67.8173 46.9773 68.8533 47.3507 69.656 47.724C70.4587 48.0973 71.1493 48.6573 71.728 49.404C72.3067 50.1507 72.596 51.1307 72.596 52.344C72.596 53.3893 72.3253 54.36 71.784 55.256C71.2427 56.152 70.4493 56.8707 69.404 57.412C68.3587 57.9347 67.1173 58.196 65.68 58.196Z" fill="white"/>
<path d="M80.5585 45.708V53.212C80.5585 53.7347 80.6798 54.1173 80.9225 54.36C81.1838 54.584 81.6132 54.696 82.2105 54.696H84.0305V58H81.5665C78.2625 58 76.6105 56.3947 76.6105 53.184V45.708H74.7625V42.488H76.6105V38.652H80.5585V42.488H84.0305V45.708H80.5585Z" fill="white"/>
<path d="M93.738 58.252C92.2446 58.252 90.9006 57.9253 89.706 57.272C88.5113 56.6 87.5686 55.6573 86.878 54.444C86.206 53.2307 85.87 51.8307 85.87 50.244C85.87 48.6573 86.2153 47.2573 86.906 46.044C87.6153 44.8307 88.5766 43.8973 89.79 43.244C91.0033 42.572 92.3566 42.236 93.85 42.236C95.3433 42.236 96.6966 42.572 97.91 43.244C99.1233 43.8973 100.075 44.8307 100.766 46.044C101.475 47.2573 101.83 48.6573 101.83 50.244C101.83 51.8307 101.466 53.2307 100.738 54.444C100.029 55.6573 99.058 56.6 97.826 57.272C96.6126 57.9253 95.25 58.252 93.738 58.252ZM93.738 54.836C94.4473 54.836 95.11 54.668 95.726 54.332C96.3606 53.9773 96.8646 53.4547 97.238 52.764C97.6113 52.0733 97.798 51.2333 97.798 50.244C97.798 48.7693 97.406 47.64 96.622 46.856C95.8566 46.0533 94.914 45.652 93.794 45.652C92.674 45.652 91.7313 46.0533 90.966 46.856C90.2193 47.64 89.846 48.7693 89.846 50.244C89.846 51.7187 90.21 52.8573 90.938 53.66C91.6846 54.444 92.618 54.836 93.738 54.836Z" fill="white"/>
<path d="M108.625 44.896C109.129 44.0747 109.783 43.4307 110.585 42.964C111.407 42.4973 112.34 42.264 113.385 42.264V46.38H112.349C111.117 46.38 110.184 46.6693 109.549 47.248C108.933 47.8267 108.625 48.8347 108.625 50.272V58H104.705V42.488H108.625V44.896Z" fill="white"/>
<path d="M130.446 49.908C130.446 50.468 130.408 50.972 130.334 51.42H118.994C119.087 52.54 119.479 53.4173 120.17 54.052C120.86 54.6867 121.71 55.004 122.718 55.004C124.174 55.004 125.21 54.3787 125.826 53.128H130.054C129.606 54.6213 128.747 55.8533 127.478 56.824C126.208 57.776 124.65 58.252 122.802 58.252C121.308 58.252 119.964 57.9253 118.77 57.272C117.594 56.6 116.67 55.6573 115.998 54.444C115.344 53.2307 115.018 51.8307 115.018 50.244C115.018 48.6387 115.344 47.2293 115.998 46.016C116.651 44.8027 117.566 43.8693 118.742 43.216C119.918 42.5627 121.271 42.236 122.802 42.236C124.276 42.236 125.592 42.5533 126.75 43.188C127.926 43.8227 128.831 44.728 129.466 45.904C130.119 47.0613 130.446 48.396 130.446 49.908ZM126.386 48.788C126.367 47.78 126.003 46.9773 125.294 46.38C124.584 45.764 123.716 45.456 122.69 45.456C121.719 45.456 120.898 45.7547 120.226 46.352C119.572 46.9307 119.171 47.7427 119.022 48.788H126.386Z" fill="white"/>
</svg>
